<?xml version="1.0" encoding="UTF-8" standalone="no"?>
<!-- Generator: Adobe Illustrator 23.0.1, SVG Export Plug-In . SVG Version: 6.00 Build 0)  -->

<svg
   version="1.1"
   x="0px"
   y="0px"
   viewBox="0 0 1601.95 570.04"
   xml:space="preserve"
   id="svg1026"
   sodipodi:docname="banner.svg"
   width="1601.95"
   height="570.03998"
   inkscape:version="1.4 (86a8ad7, 2024-10-11)"
   xmlns:inkscape="http://www.inkscape.org/namespaces/inkscape"
   xmlns:sodipodi="http://sodipodi.sourceforge.net/DTD/sodipodi-0.dtd"
   xmlns:xlink="http://www.w3.org/1999/xlink"
   xmlns="http://www.w3.org/2000/svg"
   xmlns:svg="http://www.w3.org/2000/svg"><defs
   id="defs1026" /><sodipodi:namedview
   id="namedview1026"
   pagecolor="#ffffff"
   bordercolor="#000000"
   borderopacity="0.25"
   inkscape:showpageshadow="2"
   inkscape:pageopacity="0.0"
   inkscape:pagecheckerboard="0"
   inkscape:deskcolor="#d1d1d1"
   inkscape:zoom="0.30721704"
   inkscape:cx="400.36842"
   inkscape:cy="-299.46256"
   inkscape:window-width="1536"
   inkscape:window-height="802"
   inkscape:window-x="-6"
   inkscape:window-y="-6"
   inkscape:window-maximized="1"
   inkscape:current-layer="g1026" />
<style
   type="text/css"
   id="style1">
	.st0{fill:#1D1F25;}
	.st1{fill:#E0ECDE;}
	.st2{fill:url(#SVGID_1_);}
	.st3{clip-path:url(#SVGID_3_);}
	.st4{fill:#D1BADB;}
	.st5{fill:#D0A4CC;}
	.st6{fill:#EFCA4E;}
	.st7{fill:#A3C1D9;}
	.st8{fill:#8AA3B7;}
	.st9{fill:#7CCBC1;}
	.st10{fill:#CBE5C3;}
	.st11{fill:#8AA162;}
	.st12{fill:#B1AC5E;}
	.st13{fill:#AB8E70;}
	.st14{fill:#928E84;}
	.st15{fill:#BAD069;}
	.st16{fill:#91C36C;}
	.st17{fill:#6C78B0;}
	.st18{fill:#EBA84B;}
	.st19{fill:#4B6089;}
	.st20{fill:#518B85;}
	.st21{fill:#705261;}
	.st22{fill:#FFFFFF;}
	.st23{fill:#FCD803;}
	.st24{fill:#23C1E0;}
	.st25{clip-path:url(#SVGID_5_);}
	.st26{fill:#03B8DB;}
	.st27{fill:#38E3F9;}
	.st28{fill:#97F8FF;}
	.st29{fill:#3B3B3B;}
	.st30{fill:#E2E1CF;}
	.st31{fill:#262524;}
	.st32{fill:#F9D6AF;}
	.st33{fill:#FD7F54;}
	.st34{fill:#D18161;}
	.st35{fill:#FDEBDF;}
	.st36{fill:#F0B990;}
	.st37{fill:#F81913;}
	.st38{fill:#E4007D;}
	.st39{fill:#4C484A;}
	.st40{fill:#FFB33A;}
	.st41{fill:#C67F0C;}
	.st42{fill:#E8E6FD;}
	.st43{fill:#2D2A2C;}
	.st44{fill:#1B1C1C;}
	.st45{fill:#EAC11D;}
	.st46{fill:#575757;}
	.st47{fill:#3D3D3D;}
	.st48{fill:#4F4F4F;}
	.st49{fill:#373737;}
	.st50{fill:#676767;}
	.st51{fill:#717171;}
	.st52{fill:#707070;}
	.st53{fill:#868686;}
	.st54{fill:none;stroke:#049BAF;stroke-width:1.4518;stroke-miterlimit:10;}
	.st55{fill:#049BAF;}
	.st56{fill:#38EBF9;}
	.st57{fill:#0CD9F4;}
	.st58{fill:#3A3A3A;}
	.st59{fill:#646462;}
	.st60{fill:#555555;}
	.st61{fill:#C4C4C4;}
</style>

<g
   id="Layer_2">
	<g
   id="g1026">
		<radialGradient
   id="SVGID_1_"
   cx="800.97607"
   cy="250"
   r="592.97662"
   gradientUnits="userSpaceOnUse">
			<stop
   offset="0"
   style="stop-color:#073D6D"
   id="stop34" />
			<stop
   offset="1"
   style="stop-color:#0B2C4F"
   id="stop35" />
		</radialGradient>
		<rect
   x="0.50999999"
   class="st2"
   width="1600.9301"
   height="569.98309"
   id="rect35"
   y="0"
   style="fill:url(#SVGID_1_);stroke-width:1" /><text
   xml:space="preserve"
   style="font-size:124.362px;line-height:1.25;font-family:'Aref Ruqaa';-inkscape-font-specification:'Aref Ruqaa';text-align:center;writing-mode:lr-tb;direction:ltr;text-anchor:middle;fill:#333333;stroke-width:1"
   x="803.11981"
   y="265.15112"
   id="text2-0"><tspan
     sodipodi:role="line"
     x="803.11981"
     y="265.15112"
     style="font-style:normal;font-variant:normal;font-weight:800;font-stretch:normal;font-size:124.362px;font-family:Alexandria;-inkscape-font-specification:'Alexandria Ultra-Bold';text-align:center;text-anchor:middle;fill:#333333;stroke-width:1"
     id="tspan1">أرشيف شهادة البكالوريا</tspan><tspan
     sodipodi:role="line"
     x="803.11981"
     y="425.49771"
     style="font-style:normal;font-variant:normal;font-weight:800;font-stretch:normal;font-size:124.362px;font-family:Alexandria;-inkscape-font-specification:'Alexandria Ultra-Bold';text-align:center;text-anchor:middle;fill:#333333;stroke-width:1"
     id="tspan2">الجزائرية</tspan></text><text
   xml:space="preserve"
   style="font-size:124.362px;line-height:1.25;font-family:'Aref Ruqaa';-inkscape-font-specification:'Aref Ruqaa';text-align:center;writing-mode:lr-tb;direction:ltr;text-anchor:middle;fill:#f9f9f9;stroke-width:1"
   x="797.11981"
   y="255.15112"
   id="text2-0-0"
   sodipodi:insensitive="true"><tspan
     sodipodi:role="line"
     x="797.11981"
     y="255.15112"
     style="font-style:normal;font-variant:normal;font-weight:800;font-stretch:normal;font-size:124.362px;font-family:Alexandria;-inkscape-font-specification:'Alexandria Ultra-Bold';text-align:center;text-anchor:middle;fill:#f9f9f9;stroke-width:1"
     id="tspan1-9">أرشيف شهادة البكالوريا</tspan><tspan
     sodipodi:role="line"
     x="797.11981"
     y="415.49771"
     style="font-style:normal;font-variant:normal;font-weight:800;font-stretch:normal;font-size:124.362px;font-family:Alexandria;-inkscape-font-specification:'Alexandria Ultra-Bold';text-align:center;text-anchor:middle;fill:#f9f9f9;stroke-width:1"
     id="tspan2-4">الجزائرية</tspan></text>
		<g
   id="g371"
   transform="translate(0,70)">
			<defs
   id="defs35">
				<rect
   id="SVGID_2_"
   x="0.50999999"
   width="1600.9301"
   height="500"
   y="0" />
			</defs>
			<clipPath
   id="SVGID_3_">
				<use
   xlink:href="#SVGID_2_"
   style="overflow:visible"
   id="use35" />
			</clipPath>
			<g
   class="st3"
   clip-path="url(#SVGID_3_)"
   id="g370">
				<g
   id="g67">
					<path
   class="st4"
   d="m 1.64,447.25 c 0,0 4.87,-4.7 17.62,-1.31 v 87.27 c 0,0 -13.22,2.64 -17.62,-1.55 z"
   id="path35" />
					<path
   class="st5"
   d="m 5.87,451.79 c 0,0 2.51,-2.47 9.16,0 l -0.44,65.12 c 0,0 -2.18,3.18 -8.72,0.99 z"
   id="path36" />
					<path
   class="st6"
   d="m 0.75,526.95 0.04,-2.45 c 0,0 9.66,5.16 19.36,-0.05 v 3.13 c 0,0 -8.42,4.1 -19.4,-0.63 z"
   id="path37" />
					<path
   class="st7"
   d="m 48.24,433.34 c 0,0 0.93,29.68 4.64,99.69 0,0 11.36,3.28 19.01,-1.37 0,0 -4.17,-97.16 -4.41,-100.18 -0.23,-3.01 -17.39,-2.08 -19.24,1.86 z"
   id="path38" />
					<path
   class="st8"
   d="m 54.93,458.47 c 0,0 0.74,17.09 3.08,57.4 0,0 4.36,1.79 7.21,-0.96 0,0 -2.87,-55.94 -2.99,-57.68 -0.14,-1.73 -6.65,-1.05 -7.3,1.24 z"
   id="path39" />
					<path
   class="st9"
   d="m 72.82,421.05 c 0,0 9.51,-6.49 22.49,0 v 110.61 c 0,0 -11.13,6.05 -23.42,0 z"
   id="path40" />
					<path
   class="st10"
   d="m 77.53,445.48 c 0,0 5.35,-4.59 12.65,0 v 78.25 c 0,0 -6.26,4.28 -13.17,0 z"
   id="path41" />
					<path
   class="st11"
   d="m 97.39,441.45 c 0,0 6.49,-4.4 12.98,0 0,0 -0.93,85.78 -0.93,91.35 0,0 -6.72,3.01 -14.14,0 z"
   id="path42" />
					<path
   class="st12"
   d="m 99.96,460.21 c 0,0 3.43,-2.9 6.86,0 0,0 -0.49,56.41 -0.49,60.06 0,0 -3.55,1.98 -7.47,0 z"
   id="path43" />
					<path
   class="st13"
   d="m 110.37,433.11 c 0,0 9.51,-6.96 22.03,-1.16 l -1.16,99.71 c 0,0 -9.51,5.81 -20.87,0 0,0 2.32,-91.6 0,-98.55 z"
   id="path44" />
					<path
   class="st14"
   d="m 150.25,447.48 v 84.18 c 0,0 -9.04,3.5 -17.85,0 v -83.25 c 0,0 6.49,-4.87 17.85,-0.93 z"
   id="path45" />
					<path
   class="st15"
   d="m 19.26,429.7 c 0,0 5.33,-3.87 19.48,0 l -0.93,101.96 c 0,0 -4.64,4.98 -18.55,1.55 z"
   id="path46" />
					<path
   class="st16"
   d="m 24.42,451.79 c 0,0 2.51,-2.47 9.16,0 l -0.44,65.12 c 0,0 -2.18,3.18 -8.72,0.99 z"
   id="path47" />
					<path
   class="st6"
   d="m 38.57,447.48 c 0,0 3.64,-3.25 9.67,0 v 85.73 c 0,0 -4.64,3.19 -10.66,0 z"
   id="path48" />
					<path
   class="st6"
   d="m 38.66,438.38 -0.04,4.26 c 0,0 -14.65,-4.09 -19.36,1.39 v -4.96 c 0,0 7.77,-4.61 19.4,-0.69 z"
   id="path49" />
					<path
   class="st17"
   d="m 67.79,437.85 0.21,5.28 c 0,0 -8.57,-5.39 -19.36,1.13 l -0.2,-5.19 c 0,0 9.41,-5.63 19.35,-1.22 z"
   id="path50" />
					<path
   class="st17"
   d="m 52.54,527.54 -0.21,-5.28 c 0,0 8.31,5.39 19.11,-1.13 l 0.23,5.32 c -0.01,0 -9.19,5.5 -19.13,1.09 z"
   id="path51" />
					<path
   class="st17"
   d="m 68.07,444.15 0.19,3.3 c 0,0 -10.33,-6.33 -19.45,0.99 l -0.08,-3.25 c 0,-0.01 9.49,-6.17 19.34,-1.04 z"
   id="path52" />
					<path
   class="st6"
   d="m 38.66,443.97 -0.04,2.45 c 0,0 -10.24,-5.25 -19.36,1.27 v -2.74 c 0,0 8.42,-5.7 19.4,-0.98 z"
   id="path53" />
					<path
   class="st18"
   d="m 37.68,529.11 v -4.38 c 0,0 5.04,3.33 10.56,-0.28 v 4.52 c 0,0 -5.54,3.39 -10.56,0.14 z"
   id="path54" />
					<path
   class="st18"
   d="m 37.68,523.88 0.02,-2.06 c 0,0 4.88,3.17 10.53,0 v 1.97 c 0.01,0.01 -5.32,3.05 -10.55,0.09 z"
   id="path55" />
					<path
   class="st18"
   d="m 48.25,455.8 -0.02,2.06 c 0,0 -4.54,-3.17 -9.79,0 v -1.97 c 0,0 4.95,-3.04 9.81,-0.09 z"
   id="path56" />
					<path
   class="st18"
   d="m 48.25,458.54 -0.02,2.06 c 0,0 -4.54,-3.17 -9.79,0 v -1.97 c 0,0 4.95,-3.04 9.81,-0.09 z"
   id="path57" />
					<path
   class="st18"
   d="m 48.25,452.89 -0.02,2.06 c 0,0 -4.54,-3.17 -9.79,0 v -1.97 c 0,0 4.95,-3.04 9.81,-0.09 z"
   id="path58" />
					<path
   class="st19"
   d="m 150.26,452.89 -0.04,2.06 c 0,0 -8.26,-3.17 -17.82,0 v -1.97 c 0,0 9.02,-3.04 17.86,-0.09 z"
   id="path59" />
					<path
   class="st19"
   d="m 132.35,521.51 0.04,-2.06 c 0,0 8.26,3.17 17.82,0 v 1.97 c 0,0 -9.03,3.04 -17.86,0.09 z"
   id="path60" />
					<path
   class="st20"
   d="m 95.36,430.98 -0.05,4.05 c 0,0 -10.47,-6.23 -22.59,0 v -3.88 c 0,0 11.44,-5.98 22.64,-0.17 z"
   id="path61" />
					<path
   class="st20"
   d="m 95.36,436.37 -0.05,4.05 c 0,0 -10.47,-6.23 -22.59,0 v -3.88 c 0,0 11.44,-5.98 22.64,-0.17 z"
   id="path62" />
					<path
   class="st20"
   d="m 95.36,425.26 -0.05,4.05 c 0,0 -10.47,-6.23 -22.59,0 v -3.88 c 0,0 11.44,-5.98 22.64,-0.17 z"
   id="path63" />
					<path
   class="st21"
   d="m 132.23,446.26 -0.05,4.17 c 0,0 -9.44,-6.23 -20.85,0 l -0.07,-3.95 c 0.01,0 10.43,-6.03 20.97,-0.22 z"
   id="path64" />
					<path
   class="st21"
   d="m 132.3,440.57 -0.05,4.13 c 0,0 -9.57,-6.23 -20.98,0 l -0.13,-3.88 c 0.01,0 10.62,-6.06 21.16,-0.25 z"
   id="path65" />
					<path
   class="st21"
   d="m 110.44,522.43 0.05,-4.16 c 0,0 9.44,6.23 20.84,0 l 0.07,3.95 c 0,-0.01 -10.42,6.02 -20.96,0.21 z"
   id="path66" />
					<path
   class="st21"
   d="m 110.37,528.12 0.05,-4.13 c 0,0 9.57,6.23 20.98,0 l 0.13,3.88 c 0,0 -10.62,6.06 -21.16,0.25 z"
   id="path67" />
					<rect
   x="117.66"
   y="454.51001"
   class="st21"
   width="7.3000002"
   height="57.77"
   id="rect67" />
				</g>
				<g
   id="g100">
					<path
   class="st4"
   d="m 150.87,447.77 c 0,0 4.61,-4.95 17.53,-2.23 l 4.6,87.15 c 0,0 -13.06,3.33 -17.68,-0.62 z"
   id="path68" />
					<path
   class="st5"
   d="m 155.34,452.09 c 0,0 2.37,-2.6 9.14,-0.48 l 2.99,65.05 c 0,0 -2.01,3.29 -8.66,1.45 z"
   id="path69" />
					<path
   class="st6"
   d="m 155.07,527.36 -0.09,-2.45 c 0,0 9.03,4.69 17.56,-0.98 l 0.16,3.13 c 0,0 -7.42,4.5 -17.63,0.3 z"
   id="path70" />
					<path
   class="st7"
   d="m 204.2,475.75 c 0,0 0.93,29.68 4.64,99.69 0,0 11.36,3.28 19.01,-1.37 0,0 -4.17,-97.16 -4.41,-100.18 -0.23,-3.01 -17.39,-2.08 -19.24,1.86 z"
   id="path71" />
					<path
   class="st8"
   d="m 210.89,500.88 c 0,0 0.74,17.09 3.08,57.4 0,0 4.36,1.79 7.21,-0.96 0,0 -2.87,-55.94 -2.99,-57.68 -0.14,-1.73 -6.65,-1.05 -7.3,1.24 z"
   id="path72" />
					<path
   class="st9"
   d="m 228.77,478.8 c 0,0 9.51,-6.49 22.49,0 v 110.61 c 0,0 -11.13,6.05 -23.42,0 z"
   id="path73" />
					<path
   class="st10"
   d="m 233.49,503.22 c 0,0 5.35,-4.59 12.65,0 v 78.25 c 0,0 -6.26,4.28 -13.17,0 z"
   id="path74" />
					<path
   class="st11"
   d="m 253.35,483.86 c 0,0 6.49,-4.4 12.98,0 0,0 -0.93,85.78 -0.93,91.35 0,0 -6.72,3.01 -14.14,0 z"
   id="path75" />
					<path
   class="st12"
   d="m 255.92,502.61 c 0,0 3.43,-2.9 6.86,0 0,0 -0.49,56.41 -0.49,60.06 0,0 -3.55,1.98 -7.47,0 z"
   id="path76" />
					<path
   class="st13"
   d="m 266.33,487.22 c 0,0 9.51,-6.96 22.03,-1.16 l -1.16,99.71 c 0,0 -9.51,5.81 -20.87,0 0,0.01 2.32,-91.59 0,-98.55 z"
   id="path77" />
					<path
   class="st14"
   d="m 306.21,489.89 v 84.18 c 0,0 -9.04,3.5 -17.85,0 v -83.25 c 0,0 6.49,-4.87 17.85,-0.93 z"
   id="path78" />
					<path
   class="st15"
   d="m 175.22,463.13 c 0,0 5.33,-3.87 19.48,0 l -0.93,101.96 c 0,0 -4.64,4.98 -18.55,1.55 z"
   id="path79" />
					<path
   class="st16"
   d="m 180.38,485.23 c 0,0 2.51,-2.47 9.16,0 l -0.44,65.12 c 0,0 -2.18,3.18 -8.72,0.99 z"
   id="path80" />
					<path
   class="st6"
   d="m 194.53,480.92 c 0,0 3.64,-3.25 9.67,0 v 85.73 c 0,0 -4.64,3.19 -10.66,0 z"
   id="path81" />
					<path
   class="st6"
   d="m 194.61,471.81 -0.04,4.26 c 0,0 -14.65,-4.09 -19.36,1.39 v -4.96 c 0.01,0 7.78,-4.6 19.4,-0.69 z"
   id="path82" />
					<path
   class="st17"
   d="m 223.75,480.26 0.21,5.28 c 0,0 -8.57,-5.39 -19.36,1.13 l -0.2,-5.19 c 0,0 9.41,-5.63 19.35,-1.22 z"
   id="path83" />
					<path
   class="st17"
   d="m 208.5,569.95 -0.21,-5.28 c 0,0 8.31,5.39 19.11,-1.13 l 0.23,5.32 c -0.01,-0.01 -9.19,5.5 -19.13,1.09 z"
   id="path84" />
					<path
   class="st17"
   d="m 224.03,486.56 0.19,3.3 c 0,0 -10.33,-6.33 -19.45,0.99 l -0.08,-3.25 c 0,-0.01 9.49,-6.18 19.34,-1.04 z"
   id="path85" />
					<path
   class="st6"
   d="m 194.61,477.4 -0.04,2.45 c 0,0 -10.24,-5.25 -19.36,1.27 v -2.74 c 0.01,0.01 8.43,-5.7 19.4,-0.98 z"
   id="path86" />
					<path
   class="st18"
   d="m 193.64,562.54 v -4.38 c 0,0 5.04,3.33 10.56,-0.28 v 4.52 c 0,0 -5.54,3.39 -10.56,0.14 z"
   id="path87" />
					<path
   class="st18"
   d="m 193.64,557.32 0.02,-2.06 c 0,0 4.88,3.17 10.53,0 v 1.97 c 0.01,0 -5.33,3.04 -10.55,0.09 z"
   id="path88" />
					<path
   class="st18"
   d="m 204.2,489.23 -0.02,2.06 c 0,0 -4.54,-3.17 -9.79,0 v -1.97 c 0.01,0 4.96,-3.04 9.81,-0.09 z"
   id="path89" />
					<path
   class="st18"
   d="m 204.2,491.97 -0.02,2.06 c 0,0 -4.54,-3.17 -9.79,0 v -1.97 c 0.01,0 4.96,-3.04 9.81,-0.09 z"
   id="path90" />
					<path
   class="st18"
   d="m 204.2,486.32 -0.02,2.06 c 0,0 -4.54,-3.17 -9.79,0 v -1.97 c 0.01,0 4.96,-3.04 9.81,-0.09 z"
   id="path91" />
					<path
   class="st19"
   d="m 306.22,495.3 -0.04,2.06 c 0,0 -8.26,-3.17 -17.82,0 v -1.97 c 0,-0.01 9.02,-3.05 17.86,-0.09 z"
   id="path92" />
					<path
   class="st19"
   d="m 288.31,563.92 0.04,-2.06 c 0,0 8.26,3.17 17.82,0 v 1.97 c 0,0 -9.03,3.04 -17.86,0.09 z"
   id="path93" />
					<path
   class="st20"
   d="m 251.32,488.73 -0.05,4.05 c 0,0 -10.47,-6.23 -22.59,0 v -3.88 c 0,0 11.44,-5.98 22.64,-0.17 z"
   id="path94" />
					<path
   class="st20"
   d="m 251.32,494.11 -0.05,4.05 c 0,0 -10.47,-6.23 -22.59,0 v -3.88 c 0,0 11.44,-5.98 22.64,-0.17 z"
   id="path95" />
					<path
   class="st20"
   d="m 251.32,483 -0.05,4.05 c 0,0 -10.47,-6.23 -22.59,0 v -3.88 c 0,0 11.44,-5.98 22.64,-0.17 z"
   id="path96" />
					<path
   class="st21"
   d="m 288.19,500.37 -0.05,4.17 c 0,0 -9.44,-6.23 -20.85,0 l -0.07,-3.95 c 0.01,0 10.43,-6.03 20.97,-0.22 z"
   id="path97" />
					<path
   class="st21"
   d="m 288.26,494.68 -0.05,4.13 c 0,0 -9.57,-6.23 -20.98,0 l -0.13,-3.88 c 0.01,0 10.62,-6.06 21.16,-0.25 z"
   id="path98" />
					<path
   class="st21"
   d="m 266.4,564.84 0.05,-4.16 c 0,0 9.44,6.23 20.84,0 l 0.07,3.95 c 0,-0.01 -10.42,6.02 -20.96,0.21 z"
   id="path99" />
					<path
   class="st21"
   d="m 266.33,570.53 0.05,-4.13 c 0,0 9.57,6.23 20.98,0 l 0.13,3.88 c 0,0 -10.62,6.06 -21.16,0.25 z"
   id="path100" />
					<rect
   x="273.62"
   y="508.62"
   class="st21"
   width="7.3000002"
   height="57.77"
   id="rect100" />
				</g>
				<g
   id="g133">
					<path
   class="st4"
   d="m 464.76,447.77 c 0,0 -4.61,-4.95 -17.53,-2.23 l -4.6,87.15 c 0,0 13.06,3.33 17.68,-0.62 z"
   id="path101" />
					<path
   class="st5"
   d="m 460.3,452.09 c 0,0 -2.37,-2.6 -9.14,-0.48 l -3,65.05 c 0,0 2.01,3.29 8.66,1.45 z"
   id="path102" />
					<path
   class="st6"
   d="m 460.56,527.36 0.09,-2.45 c 0,0 -9.03,4.69 -17.56,-0.98 l -0.16,3.13 c 0,0 7.43,4.5 17.63,0.3 z"
   id="path103" />
					<path
   class="st7"
   d="m 411.44,463.57 c 0,0 -0.93,29.68 -4.64,99.69 0,0 -11.36,3.28 -19.01,-1.37 0,0 4.17,-97.16 4.41,-100.18 0.23,-3.01 17.38,-2.08 19.24,1.86 z"
   id="path104" />
					<path
   class="st8"
   d="m 404.75,488.7 c 0,0 -0.74,17.09 -3.08,57.4 0,0 -4.36,1.79 -7.21,-0.96 0,0 2.87,-55.94 2.99,-57.68 0.14,-1.73 6.65,-1.05 7.3,1.24 z"
   id="path105" />
					<path
   class="st9"
   d="m 386.86,471.34 c 0,0 -9.51,-6.49 -22.49,0 v 110.61 c 0,0 11.13,6.05 23.42,0 z"
   id="path106" />
					<path
   class="st10"
   d="m 382.15,495.76 c 0,0 -5.35,-4.59 -12.65,0 v 78.25 c 0,0 6.26,4.28 13.17,0 z"
   id="path107" />
					<path
   class="st11"
   d="m 362.29,491.74 c 0,0 -6.49,-4.4 -12.98,0 0,0 0.93,85.78 0.93,91.35 0,0 6.72,3.01 14.14,0 z"
   id="path108" />
					<path
   class="st12"
   d="m 359.72,510.49 c 0,0 -3.43,-2.9 -6.86,0 0,0 0.49,56.41 0.49,60.06 0,0 3.55,1.98 7.47,0 z"
   id="path109" />
					<path
   class="st13"
   d="m 349.3,483.4 c 0,0 -9.51,-6.96 -22.03,-1.16 l 1.16,99.71 c 0,0 9.51,5.81 20.87,0 0,0 -2.32,-91.6 0,-98.55 z"
   id="path110" />
					<path
   class="st7"
   d="m 308.92,488.49 -1.83,71.64 c 0,0 7.62,3.17 15.19,0.39 l 1.81,-70.85 c 0,-0.01 -5.42,-4.29 -15.17,-1.18 z"
   id="path111" />
					<path
   class="st15"
   d="m 440.42,449.37 c 0,0 -5.33,-3.87 -19.48,0 l 0.93,101.96 c 0,0 4.64,4.98 18.55,1.55 z"
   id="path112" />
					<path
   class="st16"
   d="m 435.26,471.46 c 0,0 -2.51,-2.47 -9.16,0 l 0.44,65.12 c 0,0 2.18,3.18 8.72,0.99 z"
   id="path113" />
					<path
   class="st6"
   d="m 421.1,467.15 c 0,0 -3.64,-3.25 -9.67,0 v 85.73 c 0,0 4.64,3.2 10.66,0 z"
   id="path114" />
					<path
   class="st6"
   d="m 421.02,458.05 0.04,4.26 c 0,0 14.65,-4.09 19.36,1.39 v -4.96 c 0,0 -7.77,-4.61 -19.4,-0.69 z"
   id="path115" />
					<path
   class="st17"
   d="m 391.88,468.08 -0.21,5.28 c 0,0 8.57,-5.39 19.36,1.13 l 0.2,-5.19 c 0,0 -9.4,-5.63 -19.35,-1.22 z"
   id="path116" />
					<path
   class="st17"
   d="m 407.14,557.77 0.21,-5.28 c 0,0 -8.31,5.39 -19.11,-1.13 l -0.23,5.32 c 0,-0.01 9.18,5.5 19.13,1.09 z"
   id="path117" />
					<path
   class="st17"
   d="m 391.6,474.38 -0.19,3.3 c 0,0 10.33,-6.33 19.45,0.99 l 0.08,-3.25 c 0,-0.01 -9.49,-6.18 -19.34,-1.04 z"
   id="path118" />
					<path
   class="st6"
   d="m 421.02,463.64 0.04,2.45 c 0,0 10.24,-5.25 19.36,1.27 v -2.74 c 0,0 -8.42,-5.71 -19.4,-0.98 z"
   id="path119" />
					<path
   class="st18"
   d="m 421.99,548.78 v -4.38 c 0,0 -5.04,3.33 -10.56,-0.28 v 4.52 c 0.01,0 5.55,3.38 10.56,0.14 z"
   id="path120" />
					<path
   class="st18"
   d="m 421.99,543.55 -0.02,-2.06 c 0,0 -4.88,3.17 -10.53,0 v 1.97 c 0,0.01 5.33,3.05 10.55,0.09 z"
   id="path121" />
					<path
   class="st18"
   d="m 411.43,475.47 0.02,2.06 c 0,0 4.54,-3.17 9.79,0 v -1.97 c 0,0 -4.96,-3.04 -9.81,-0.09 z"
   id="path122" />
					<path
   class="st18"
   d="m 411.43,478.21 0.02,2.06 c 0,0 4.54,-3.17 9.79,0 v -1.97 c 0,0 -4.96,-3.05 -9.81,-0.09 z"
   id="path123" />
					<path
   class="st18"
   d="m 411.43,472.56 0.02,2.06 c 0,0 4.54,-3.17 9.79,0 v -1.97 c 0,-0.01 -4.96,-3.05 -9.81,-0.09 z"
   id="path124" />
					<path
   class="st19"
   d="m 308.79,493.09 -0.01,1.75 c 0,0 7.1,-2.52 15.16,0.39 l 0.04,-1.68 c 0.01,0 -7.6,-2.79 -15.19,-0.46 z"
   id="path125" />
					<path
   class="st19"
   d="m 322.54,551.87 0.01,-1.75 c 0,0 -7.1,2.52 -15.17,-0.39 l -0.04,1.68 c 0,0 7.62,2.79 15.2,0.46 z"
   id="path126" />
					<path
   class="st20"
   d="m 364.31,481.27 0.05,4.05 c 0,0 10.47,-6.23 22.59,0 v -3.88 c 0.01,0 -11.44,-5.98 -22.64,-0.17 z"
   id="path127" />
					<path
   class="st20"
   d="m 364.31,486.66 0.05,4.05 c 0,0 10.47,-6.23 22.59,0 v -3.88 c 0.01,-0.01 -11.44,-5.98 -22.64,-0.17 z"
   id="path128" />
					<path
   class="st20"
   d="m 364.31,475.55 0.05,4.05 c 0,0 10.47,-6.23 22.59,0 v -3.88 c 0.01,-0.01 -11.44,-5.98 -22.64,-0.17 z"
   id="path129" />
					<path
   class="st21"
   d="m 327.44,496.55 0.05,4.17 c 0,0 9.44,-6.23 20.85,0 l 0.07,-3.95 c -0.01,0 -10.43,-6.03 -20.97,-0.22 z"
   id="path130" />
					<path
   class="st21"
   d="m 327.38,490.86 0.05,4.13 c 0,0 9.57,-6.23 20.98,0 l 0.13,-3.88 c -0.01,0 -10.62,-6.06 -21.16,-0.25 z"
   id="path131" />
					<path
   class="st21"
   d="m 349.24,572.72 -0.05,-4.16 c 0,0 -9.44,6.23 -20.84,0 l -0.07,3.95 c 0,-0.01 10.42,6.02 20.96,0.21 z"
   id="path132" />
					<path
   class="st21"
   d="m 349.3,578.41 -0.05,-4.13 c 0,0 -9.57,6.23 -20.98,0 l -0.13,3.88 c 0.01,0 10.62,6.06 21.16,0.25 z"
   id="path133" />
					<rect
   x="334.70999"
   y="504.79999"
   class="st21"
   width="7.3000002"
   height="57.77"
   id="rect133" />
				</g>
				<g
   id="g166">
					<path
   class="st4"
   d="m 623.25,447.77 c 0,0 -4.61,-4.95 -17.53,-2.23 l -4.6,87.15 c 0,0 13.06,3.33 17.68,-0.62 z"
   id="path134" />
					<path
   class="st5"
   d="m 618.79,452.09 c 0,0 -2.37,-2.6 -9.14,-0.48 l -3,65.05 c 0,0 2.01,3.29 8.66,1.45 z"
   id="path135" />
					<path
   class="st6"
   d="m 619.06,527.36 0.09,-2.45 c 0,0 -9.04,4.69 -17.56,-0.98 l -0.16,3.13 c 0,0 7.42,4.5 17.63,0.3 z"
   id="path136" />
					<path
   class="st7"
   d="m 569.93,433.34 c 0,0 -0.93,29.68 -4.64,99.69 0,0 -11.36,3.28 -19.01,-1.37 0,0 4.17,-97.16 4.4,-100.18 0.24,-3.01 17.39,-2.08 19.25,1.86 z"
   id="path137" />
					<path
   class="st8"
   d="m 563.24,458.47 c 0,0 -0.74,17.09 -3.08,57.4 0,0 -4.36,1.79 -7.21,-0.96 0,0 2.87,-55.94 2.99,-57.68 0.14,-1.73 6.65,-1.05 7.3,1.24 z"
   id="path138" />
					<path
   class="st9"
   d="m 545.35,421.05 c 0,0 -9.51,-6.49 -22.49,0 v 110.61 c 0,0 11.13,6.05 23.42,0 z"
   id="path139" />
					<path
   class="st10"
   d="m 540.64,445.48 c 0,0 -5.35,-4.59 -12.65,0 v 78.25 c 0,0 6.26,4.28 13.17,0 z"
   id="path140" />
					<path
   class="st11"
   d="m 520.78,441.45 c 0,0 -6.49,-4.4 -12.98,0 0,0 0.93,85.78 0.93,91.35 0,0 6.72,3.01 14.14,0 z"
   id="path141" />
					<path
   class="st12"
   d="m 518.21,460.21 c 0,0 -3.43,-2.9 -6.86,0 0,0 0.49,56.41 0.49,60.06 0,0 3.55,1.98 7.47,0 z"
   id="path142" />
					<path
   class="st13"
   d="m 507.79,433.11 c 0,0 -9.51,-6.96 -22.03,-1.16 l 1.16,99.71 c 0,0 9.51,5.81 20.87,0 0,0 -2.31,-91.6 0,-98.55 z"
   id="path143" />
					<path
   class="st7"
   d="m 469.2,460.05 -1.83,71.64 c 0,0 7.62,3.17 15.19,0.39 l 1.81,-70.85 c 0,0 -5.41,-4.29 -15.17,-1.18 z"
   id="path144" />
					<path
   class="st15"
   d="m 598.91,429.7 c 0,0 -5.33,-3.87 -19.48,0 l 0.93,101.96 c 0,0 4.64,4.98 18.55,1.55 z"
   id="path145" />
					<path
   class="st16"
   d="m 593.75,451.79 c 0,0 -2.51,-2.47 -9.16,0 l 0.44,65.12 c 0,0 2.18,3.18 8.72,0.99 z"
   id="path146" />
					<path
   class="st6"
   d="m 579.6,447.48 c 0,0 -3.64,-3.25 -9.67,0 v 85.73 c 0,0 4.64,3.19 10.66,0 z"
   id="path147" />
					<path
   class="st6"
   d="m 579.51,438.38 0.04,4.26 c 0,0 14.65,-4.09 19.36,1.39 v -4.96 c 0,0 -7.77,-4.61 -19.4,-0.69 z"
   id="path148" />
					<path
   class="st17"
   d="m 550.38,437.85 -0.21,5.28 c 0,0 8.57,-5.39 19.36,1.13 l 0.2,-5.19 c 0,0 -9.41,-5.63 -19.35,-1.22 z"
   id="path149" />
					<path
   class="st17"
   d="m 565.63,527.54 0.21,-5.28 c 0,0 -8.31,5.39 -19.11,-1.13 l -0.23,5.32 c 0.01,0 9.19,5.5 19.13,1.09 z"
   id="path150" />
					<path
   class="st17"
   d="m 550.1,444.15 -0.19,3.3 c 0,0 10.33,-6.33 19.45,0.99 l 0.08,-3.25 c 0,-0.01 -9.49,-6.17 -19.34,-1.04 z"
   id="path151" />
					<path
   class="st6"
   d="m 579.51,443.97 0.04,2.45 c 0,0 10.24,-5.25 19.36,1.27 v -2.74 c 0,0 -8.42,-5.7 -19.4,-0.98 z"
   id="path152" />
					<path
   class="st18"
   d="m 580.49,529.11 v -4.38 c 0,0 -5.04,3.33 -10.56,-0.28 v 4.52 c 0,0 5.54,3.39 10.56,0.14 z"
   id="path153" />
					<path
   class="st18"
   d="m 580.49,523.88 -0.02,-2.06 c 0,0 -4.88,3.17 -10.53,0 v 1.97 c -0.01,0.01 5.32,3.05 10.55,0.09 z"
   id="path154" />
					<path
   class="st18"
   d="m 569.92,455.8 0.02,2.06 c 0,0 4.54,-3.17 9.79,0 v -1.97 c 0,0 -4.95,-3.04 -9.81,-0.09 z"
   id="path155" />
					<path
   class="st18"
   d="m 569.92,458.54 0.02,2.06 c 0,0 4.54,-3.17 9.79,0 v -1.97 c 0,0 -4.95,-3.04 -9.81,-0.09 z"
   id="path156" />
					<path
   class="st18"
   d="m 569.92,452.89 0.02,2.06 c 0,0 4.54,-3.17 9.79,0 v -1.97 c 0,0 -4.95,-3.04 -9.81,-0.09 z"
   id="path157" />
					<path
   class="st19"
   d="m 469.08,464.65 -0.01,1.75 c 0,0 7.1,-2.52 15.16,0.39 l 0.04,-1.68 c 0,0 -7.61,-2.78 -15.19,-0.46 z"
   id="path158" />
					<path
   class="st19"
   d="m 482.83,523.44 0.01,-1.75 c 0,0 -7.1,2.52 -15.17,-0.39 l -0.04,1.68 c 0,-0.01 7.61,2.78 15.2,0.46 z"
   id="path159" />
					<path
   class="st20"
   d="m 522.81,430.98 0.05,4.05 c 0,0 10.47,-6.23 22.59,0 v -3.88 c 0,0 -11.44,-5.98 -22.64,-0.17 z"
   id="path160" />
					<path
   class="st20"
   d="m 522.81,436.37 0.05,4.05 c 0,0 10.47,-6.23 22.59,0 v -3.88 c 0,0 -11.44,-5.98 -22.64,-0.17 z"
   id="path161" />
					<path
   class="st20"
   d="m 522.81,425.26 0.05,4.05 c 0,0 10.47,-6.23 22.59,0 v -3.88 c 0,0 -11.44,-5.98 -22.64,-0.17 z"
   id="path162" />
					<path
   class="st21"
   d="m 485.94,446.26 0.05,4.17 c 0,0 9.44,-6.23 20.85,0 l 0.07,-3.95 c -0.02,0 -10.43,-6.03 -20.97,-0.22 z"
   id="path163" />
					<path
   class="st21"
   d="m 485.87,440.57 0.05,4.13 c 0,0 9.57,-6.23 20.98,0 l 0.13,-3.88 c -0.01,0 -10.62,-6.06 -21.16,-0.25 z"
   id="path164" />
					<path
   class="st21"
   d="m 507.73,522.43 -0.05,-4.16 c 0,0 -9.44,6.23 -20.84,0 l -0.07,3.95 c 0,-0.01 10.42,6.02 20.96,0.21 z"
   id="path165" />
					<path
   class="st21"
   d="m 507.79,528.12 -0.05,-4.13 c 0,0 -9.57,6.23 -20.98,0 l -0.13,3.88 c 0.01,0 10.63,6.06 21.16,0.25 z"
   id="path166" />
					<rect
   x="493.20001"
   y="454.51001"
   class="st21"
   width="7.3000002"
   height="57.77"
   id="rect166" />
				</g>
				<g
   id="g199">
					<path
   class="st4"
   d="m 782.58,447.77 c 0,0 -4.61,-4.95 -17.53,-2.23 l -4.6,87.15 c 0,0 13.06,3.33 17.68,-0.62 z"
   id="path167" />
					<path
   class="st5"
   d="m 778.11,452.09 c 0,0 -2.37,-2.6 -9.14,-0.48 l -3,65.05 c 0,0 2.01,3.29 8.66,1.45 z"
   id="path168" />
					<path
   class="st6"
   d="m 778.38,527.36 0.09,-2.45 c 0,0 -9.03,4.69 -17.56,-0.98 l -0.16,3.13 c 0,0 7.42,4.5 17.63,0.3 z"
   id="path169" />
					<path
   class="st7"
   d="m 729.25,433.34 c 0,0 -0.93,29.68 -4.64,99.69 0,0 -11.36,3.28 -19.01,-1.37 0,0 4.17,-97.16 4.41,-100.18 0.23,-3.01 17.39,-2.08 19.24,1.86 z"
   id="path170" />
					<path
   class="st8"
   d="m 722.56,458.47 c 0,0 -0.74,17.09 -3.08,57.4 0,0 -4.36,1.79 -7.21,-0.96 0,0 2.87,-55.94 2.99,-57.68 0.14,-1.73 6.65,-1.05 7.3,1.24 z"
   id="path171" />
					<path
   class="st9"
   d="m 704.68,421.05 c 0,0 -9.51,-6.49 -22.49,0 v 110.61 c 0,0 11.13,6.05 23.42,0 z"
   id="path172" />
					<path
   class="st10"
   d="m 699.96,445.48 c 0,0 -5.35,-4.59 -12.65,0 v 78.25 c 0,0 6.26,4.28 13.17,0 z"
   id="path173" />
					<path
   class="st11"
   d="m 680.1,441.45 c 0,0 -6.49,-4.4 -12.98,0 0,0 0.93,85.78 0.93,91.35 0,0 6.72,3.01 14.14,0 z"
   id="path174" />
					<path
   class="st12"
   d="m 677.53,460.21 c 0,0 -3.43,-2.9 -6.86,0 0,0 0.49,56.41 0.49,60.06 0,0 3.55,1.98 7.47,0 z"
   id="path175" />
					<path
   class="st13"
   d="m 667.12,433.11 c 0,0 -9.51,-6.96 -22.03,-1.16 l 1.16,99.71 c 0,0 9.51,5.81 20.87,0 0,0 -2.32,-91.6 0,-98.55 z"
   id="path176" />
					<path
   class="st7"
   d="m 628.53,460.05 -1.83,71.64 c 0,0 7.62,3.17 15.19,0.39 l 1.81,-70.85 c 0,0 -5.42,-4.29 -15.17,-1.18 z"
   id="path177" />
					<path
   class="st15"
   d="m 758.23,429.7 c 0,0 -5.33,-3.87 -19.48,0 l 0.93,101.96 c 0,0 4.64,4.98 18.55,1.55 z"
   id="path178" />
					<path
   class="st16"
   d="m 753.07,451.79 c 0,0 -2.51,-2.47 -9.16,0 l 0.44,65.12 c 0,0 2.18,3.18 8.72,0.99 z"
   id="path179" />
					<path
   class="st6"
   d="m 738.92,447.48 c 0,0 -3.64,-3.25 -9.67,0 v 85.73 c 0,0 4.64,3.19 10.66,0 z"
   id="path180" />
					<path
   class="st6"
   d="m 738.84,438.38 0.04,4.26 c 0,0 14.65,-4.09 19.36,1.39 v -4.96 c -0.01,0 -7.78,-4.61 -19.4,-0.69 z"
   id="path181" />
					<path
   class="st17"
   d="m 709.7,437.85 -0.21,5.28 c 0,0 8.57,-5.39 19.36,1.13 l 0.2,-5.19 c 0,0 -9.41,-5.63 -19.35,-1.22 z"
   id="path182" />
					<path
   class="st17"
   d="m 724.95,527.54 0.21,-5.28 c 0,0 -8.31,5.39 -19.11,-1.13 l -0.23,5.32 c 0.01,0 9.19,5.5 19.13,1.09 z"
   id="path183" />
					<path
   class="st17"
   d="m 709.42,444.15 -0.19,3.3 c 0,0 10.33,-6.33 19.45,0.99 l 0.08,-3.25 c 0,-0.01 -9.49,-6.17 -19.34,-1.04 z"
   id="path184" />
					<path
   class="st6"
   d="m 738.84,443.97 0.04,2.45 c 0,0 10.24,-5.25 19.36,1.27 v -2.74 c -0.01,0 -8.43,-5.7 -19.4,-0.98 z"
   id="path185" />
					<path
   class="st18"
   d="m 739.81,529.11 v -4.38 c 0,0 -5.04,3.33 -10.56,-0.28 v 4.52 c 0,0 5.54,3.39 10.56,0.14 z"
   id="path186" />
					<path
   class="st18"
   d="m 739.81,523.88 -0.02,-2.06 c 0,0 -4.88,3.17 -10.53,0 v 1.97 c -0.01,0.01 5.33,3.05 10.55,0.09 z"
   id="path187" />
					<path
   class="st18"
   d="m 729.25,455.8 0.02,2.06 c 0,0 4.54,-3.17 9.79,0 v -1.97 c -0.01,0 -4.96,-3.04 -9.81,-0.09 z"
   id="path188" />
					<path
   class="st18"
   d="m 729.25,458.54 0.02,2.06 c 0,0 4.54,-3.17 9.79,0 v -1.97 c -0.01,0 -4.96,-3.04 -9.81,-0.09 z"
   id="path189" />
					<path
   class="st18"
   d="m 729.25,452.89 0.02,2.06 c 0,0 4.54,-3.17 9.79,0 v -1.97 c -0.01,0 -4.96,-3.04 -9.81,-0.09 z"
   id="path190" />
					<path
   class="st19"
   d="m 628.4,464.65 -0.01,1.75 c 0,0 7.1,-2.52 15.16,0.39 l 0.04,-1.68 c 0.01,0 -7.61,-2.78 -15.19,-0.46 z"
   id="path191" />
					<path
   class="st19"
   d="m 642.15,523.44 0.01,-1.75 c 0,0 -7.1,2.52 -15.17,-0.39 l -0.04,1.68 c 0,-0.01 7.62,2.78 15.2,0.46 z"
   id="path192" />
					<path
   class="st20"
   d="m 682.13,430.98 0.05,4.05 c 0,0 10.47,-6.23 22.59,0 v -3.88 c 0,0 -11.44,-5.98 -22.64,-0.17 z"
   id="path193" />
					<path
   class="st20"
   d="m 682.13,436.37 0.05,4.05 c 0,0 10.47,-6.23 22.59,0 v -3.88 c 0,0 -11.44,-5.98 -22.64,-0.17 z"
   id="path194" />
					<path
   class="st20"
   d="m 682.13,425.26 0.05,4.05 c 0,0 10.47,-6.23 22.59,0 v -3.88 c 0,0 -11.44,-5.98 -22.64,-0.17 z"
   id="path195" />
					<path
   class="st21"
   d="m 645.26,446.26 0.05,4.17 c 0,0 9.44,-6.23 20.85,0 l 0.07,-3.95 c -0.01,0 -10.43,-6.03 -20.97,-0.22 z"
   id="path196" />
					<path
   class="st21"
   d="m 645.19,440.57 0.05,4.13 c 0,0 9.57,-6.23 20.98,0 l 0.13,-3.88 c -0.01,0 -10.62,-6.06 -21.16,-0.25 z"
   id="path197" />
					<path
   class="st21"
   d="M 667.05,522.43 667,518.27 c 0,0 -9.44,6.23 -20.84,0 l -0.07,3.95 c 0,-0.01 10.42,6.02 20.96,0.21 z"
   id="path198" />
					<path
   class="st21"
   d="m 667.12,528.12 -0.05,-4.13 c 0,0 -9.57,6.23 -20.98,0 l -0.13,3.88 c 0.01,0 10.62,6.06 21.16,0.25 z"
   id="path199" />
					<rect
   x="652.52002"
   y="454.51001"
   class="st21"
   width="7.3000002"
   height="57.77"
   id="rect199" />
				</g>
				<g
   id="g232">
					<path
   class="st4"
   d="m 941.07,447.77 c 0,0 -4.61,-4.95 -17.53,-2.23 l -4.6,87.15 c 0,0 13.06,3.33 17.68,-0.62 z"
   id="path200" />
					<path
   class="st5"
   d="m 936.6,452.09 c 0,0 -2.37,-2.6 -9.14,-0.48 l -3,65.05 c 0,0 2.01,3.29 8.66,1.45 z"
   id="path201" />
					<path
   class="st6"
   d="m 936.87,527.36 0.09,-2.45 c 0,0 -9.04,4.69 -17.56,-0.98 l -0.16,3.13 c 0,0 7.42,4.5 17.63,0.3 z"
   id="path202" />
					<path
   class="st7"
   d="m 887.74,433.34 c 0,0 -0.93,29.68 -4.64,99.69 0,0 -11.36,3.28 -19.01,-1.37 0,0 4.17,-97.16 4.4,-100.18 0.24,-3.01 17.4,-2.08 19.25,1.86 z"
   id="path203" />
					<path
   class="st8"
   d="m 881.05,458.47 c 0,0 -0.74,17.09 -3.08,57.4 0,0 -4.36,1.79 -7.21,-0.96 0,0 2.87,-55.94 2.99,-57.68 0.14,-1.73 6.65,-1.05 7.3,1.24 z"
   id="path204" />
					<path
   class="st9"
   d="m 863.17,421.05 c 0,0 -9.51,-6.49 -22.49,0 v 110.61 c 0,0 11.13,6.05 23.42,0 z"
   id="path205" />
					<path
   class="st10"
   d="m 858.45,445.48 c 0,0 -5.35,-4.59 -12.65,0 v 78.25 c 0,0 6.26,4.28 13.17,0 z"
   id="path206" />
					<path
   class="st11"
   d="m 838.59,441.45 c 0,0 -6.49,-4.4 -12.98,0 0,0 0.93,85.78 0.93,91.35 0,0 6.72,3.01 14.14,0 z"
   id="path207" />
					<path
   class="st12"
   d="m 836.02,460.21 c 0,0 -3.43,-2.9 -6.86,0 0,0 0.49,56.41 0.49,60.06 0,0 3.55,1.98 7.47,0 z"
   id="path208" />
					<path
   class="st13"
   d="m 825.61,433.11 c 0,0 -9.51,-6.96 -22.03,-1.16 l 1.16,99.71 c 0,0 9.51,5.81 20.87,0 0,0 -2.32,-91.6 0,-98.55 z"
   id="path209" />
					<path
   class="st7"
   d="m 787.02,460.05 -1.83,71.64 c 0,0 7.62,3.17 15.19,0.39 l 1.81,-70.85 c 0,0 -5.42,-4.29 -15.17,-1.18 z"
   id="path210" />
					<path
   class="st15"
   d="m 916.72,429.7 c 0,0 -5.33,-3.87 -19.48,0 l 0.93,101.96 c 0,0 4.64,4.98 18.55,1.55 z"
   id="path211" />
					<path
   class="st16"
   d="m 911.56,451.79 c 0,0 -2.51,-2.47 -9.16,0 l 0.44,65.12 c 0,0 2.18,3.18 8.72,0.99 z"
   id="path212" />
					<path
   class="st6"
   d="m 897.41,447.48 c 0,0 -3.64,-3.25 -9.67,0 v 85.73 c 0,0 4.64,3.19 10.66,0 z"
   id="path213" />
					<path
   class="st6"
   d="m 897.33,438.38 0.04,4.26 c 0,0 14.65,-4.09 19.36,1.39 v -4.96 c -0.01,0 -7.77,-4.61 -19.4,-0.69 z"
   id="path214" />
					<path
   class="st17"
   d="m 868.19,437.85 -0.21,5.28 c 0,0 8.57,-5.39 19.36,1.13 l 0.2,-5.19 c 0,0 -9.4,-5.63 -19.35,-1.22 z"
   id="path215" />
					<path
   class="st17"
   d="m 883.45,527.54 0.21,-5.28 c 0,0 -8.31,5.39 -19.11,-1.13 l -0.23,5.32 c 0,0 9.18,5.5 19.13,1.09 z"
   id="path216" />
					<path
   class="st17"
   d="m 867.91,444.15 -0.19,3.3 c 0,0 10.33,-6.33 19.45,0.99 l 0.08,-3.25 c 0,-0.01 -9.49,-6.17 -19.34,-1.04 z"
   id="path217" />
					<path
   class="st6"
   d="m 897.33,443.97 0.04,2.45 c 0,0 10.24,-5.25 19.36,1.27 v -2.74 c -0.01,0 -8.43,-5.7 -19.4,-0.98 z"
   id="path218" />
					<path
   class="st18"
   d="m 898.3,529.11 v -4.38 c 0,0 -5.04,3.33 -10.56,-0.28 v 4.52 c 0,0 5.54,3.39 10.56,0.14 z"
   id="path219" />
					<path
   class="st18"
   d="m 898.3,523.88 -0.02,-2.06 c 0,0 -4.88,3.17 -10.53,0 v 1.97 c -0.01,0.01 5.33,3.05 10.55,0.09 z"
   id="path220" />
					<path
   class="st18"
   d="m 887.74,455.8 0.02,2.06 c 0,0 4.54,-3.17 9.79,0 v -1.97 c 0,0 -4.96,-3.04 -9.81,-0.09 z"
   id="path221" />
					<path
   class="st18"
   d="m 887.74,458.54 0.02,2.06 c 0,0 4.54,-3.17 9.79,0 v -1.97 c 0,0 -4.96,-3.04 -9.81,-0.09 z"
   id="path222" />
					<path
   class="st18"
   d="m 887.74,452.89 0.02,2.06 c 0,0 4.54,-3.17 9.79,0 v -1.97 c 0,0 -4.96,-3.04 -9.81,-0.09 z"
   id="path223" />
					<path
   class="st19"
   d="m 786.89,464.65 -0.01,1.75 c 0,0 7.1,-2.52 15.16,0.39 l 0.04,-1.68 c 0.01,0 -7.6,-2.78 -15.19,-0.46 z"
   id="path224" />
					<path
   class="st19"
   d="m 800.64,523.44 0.01,-1.75 c 0,0 -7.1,2.52 -15.17,-0.39 l -0.04,1.68 c 0,-0.01 7.62,2.78 15.2,0.46 z"
   id="path225" />
					<path
   class="st20"
   d="m 840.62,430.98 0.05,4.05 c 0,0 10.47,-6.23 22.59,0 v -3.88 c 0,0 -11.44,-5.98 -22.64,-0.17 z"
   id="path226" />
					<path
   class="st20"
   d="m 840.62,436.37 0.05,4.05 c 0,0 10.47,-6.23 22.59,0 v -3.88 c 0,0 -11.44,-5.98 -22.64,-0.17 z"
   id="path227" />
					<path
   class="st20"
   d="m 840.62,425.26 0.05,4.05 c 0,0 10.47,-6.23 22.59,0 v -3.88 c 0,0 -11.44,-5.98 -22.64,-0.17 z"
   id="path228" />
					<path
   class="st21"
   d="m 803.75,446.26 0.05,4.17 c 0,0 9.44,-6.23 20.85,0 l 0.07,-3.95 c -0.01,0 -10.43,-6.03 -20.97,-0.22 z"
   id="path229" />
					<path
   class="st21"
   d="m 803.68,440.57 0.05,4.13 c 0,0 9.57,-6.23 20.98,0 l 0.13,-3.88 c 0,0 -10.62,-6.06 -21.16,-0.25 z"
   id="path230" />
					<path
   class="st21"
   d="m 825.54,522.43 -0.05,-4.16 c 0,0 -9.44,6.23 -20.84,0 l -0.07,3.95 c 0,-0.01 10.42,6.02 20.96,0.21 z"
   id="path231" />
					<path
   class="st21"
   d="m 825.61,528.12 -0.05,-4.13 c 0,0 -9.57,6.23 -20.98,0 l -0.13,3.88 c 0.01,0 10.62,6.06 21.16,0.25 z"
   id="path232" />
					<rect
   x="811.02002"
   y="454.51001"
   class="st21"
   width="7.3000002"
   height="57.77"
   id="rect232" />
				</g>
				<g
   id="g265">
					<path
   class="st4"
   d="m 1098.91,447.77 c 0,0 -4.61,-4.95 -17.53,-2.23 l -4.6,87.15 c 0,0 13.06,3.33 17.68,-0.62 z"
   id="path233" />
					<path
   class="st5"
   d="m 1094.44,452.09 c 0,0 -2.37,-2.6 -9.14,-0.48 l -3,65.05 c 0,0 2.01,3.29 8.66,1.45 z"
   id="path234" />
					<path
   class="st6"
   d="m 1094.71,527.36 0.09,-2.45 c 0,0 -9.03,4.69 -17.56,-0.98 l -0.16,3.13 c 0,0 7.42,4.5 17.63,0.3 z"
   id="path235" />
					<path
   class="st7"
   d="m 1045.58,433.34 c 0,0 -0.93,29.68 -4.64,99.69 0,0 -11.36,3.28 -19.01,-1.37 0,0 4.17,-97.16 4.4,-100.18 0.24,-3.01 17.4,-2.08 19.25,1.86 z"
   id="path236" />
					<path
   class="st8"
   d="m 1038.89,458.47 c 0,0 -0.74,17.09 -3.08,57.4 0,0 -4.36,1.79 -7.21,-0.96 0,0 2.87,-55.94 2.99,-57.68 0.14,-1.73 6.65,-1.05 7.3,1.24 z"
   id="path237" />
					<path
   class="st9"
   d="m 1021.01,421.05 c 0,0 -9.51,-6.49 -22.49,0 v 110.61 c 0,0 11.13,6.05 23.42,0 z"
   id="path238" />
					<path
   class="st10"
   d="m 1016.29,445.48 c 0,0 -5.35,-4.59 -12.65,0 v 78.25 c 0,0 6.26,4.28 13.17,0 z"
   id="path239" />
					<path
   class="st11"
   d="m 996.43,441.45 c 0,0 -6.49,-4.4 -12.98,0 0,0 0.93,85.78 0.93,91.35 0,0 6.72,3.01 14.14,0 z"
   id="path240" />
					<path
   class="st12"
   d="m 993.86,460.21 c 0,0 -3.43,-2.9 -6.86,0 0,0 0.49,56.41 0.49,60.06 0,0 3.55,1.98 7.47,0 z"
   id="path241" />
					<path
   class="st13"
   d="m 983.45,433.11 c 0,0 -9.51,-6.96 -22.03,-1.16 l 1.16,99.71 c 0,0 9.51,5.81 20.87,0 0,0 -2.32,-91.6 0,-98.55 z"
   id="path242" />
					<path
   class="st7"
   d="m 944.86,460.05 -1.83,71.64 c 0,0 7.62,3.17 15.19,0.39 l 1.81,-70.85 c 0,0 -5.42,-4.29 -15.17,-1.18 z"
   id="path243" />
					<path
   class="st15"
   d="m 1074.56,429.7 c 0,0 -5.33,-3.87 -19.48,0 l 0.93,101.96 c 0,0 4.64,4.98 18.55,1.55 z"
   id="path244" />
					<path
   class="st16"
   d="m 1069.4,451.79 c 0,0 -2.51,-2.47 -9.16,0 l 0.44,65.12 c 0,0 2.18,3.18 8.72,0.99 z"
   id="path245" />
					<path
   class="st6"
   d="m 1055.25,447.48 c 0,0 -3.64,-3.25 -9.67,0 v 85.73 c 0,0 4.64,3.19 10.66,0 z"
   id="path246" />
					<path
   class="st6"
   d="m 1055.17,438.38 0.04,4.26 c 0,0 14.65,-4.09 19.36,1.39 v -4.96 c -0.01,0 -7.78,-4.61 -19.4,-0.69 z"
   id="path247" />
					<path
   class="st17"
   d="m 1026.03,437.85 -0.21,5.28 c 0,0 8.57,-5.39 19.36,1.13 l 0.2,-5.19 c 0,0 -9.41,-5.63 -19.35,-1.22 z"
   id="path248" />
					<path
   class="st17"
   d="m 1041.29,527.54 0.21,-5.28 c 0,0 -8.31,5.39 -19.11,-1.13 l -0.23,5.32 c 0,0 9.18,5.5 19.13,1.09 z"
   id="path249" />
					<path
   class="st17"
   d="m 1025.75,444.15 -0.19,3.3 c 0,0 10.33,-6.33 19.45,0.99 l 0.08,-3.25 c 0,-0.01 -9.49,-6.17 -19.34,-1.04 z"
   id="path250" />
					<path
   class="st6"
   d="m 1055.17,443.97 0.04,2.45 c 0,0 10.24,-5.25 19.36,1.27 v -2.74 c -0.01,0 -8.43,-5.7 -19.4,-0.98 z"
   id="path251" />
					<path
   class="st18"
   d="m 1056.14,529.11 v -4.38 c 0,0 -5.04,3.33 -10.56,-0.28 v 4.52 c 0,0 5.54,3.39 10.56,0.14 z"
   id="path252" />
					<path
   class="st18"
   d="m 1056.14,523.88 -0.02,-2.06 c 0,0 -4.88,3.17 -10.53,0 v 1.97 c -0.01,0.01 5.33,3.05 10.55,0.09 z"
   id="path253" />
					<path
   class="st18"
   d="m 1045.58,455.8 0.02,2.06 c 0,0 4.54,-3.17 9.79,0 v -1.97 c -0.01,0 -4.96,-3.04 -9.81,-0.09 z"
   id="path254" />
					<path
   class="st18"
   d="m 1045.58,458.54 0.02,2.06 c 0,0 4.54,-3.17 9.79,0 v -1.97 c -0.01,0 -4.96,-3.04 -9.81,-0.09 z"
   id="path255" />
					<path
   class="st18"
   d="m 1045.58,452.89 0.02,2.06 c 0,0 4.54,-3.17 9.79,0 v -1.97 c -0.01,0 -4.96,-3.04 -9.81,-0.09 z"
   id="path256" />
					<path
   class="st19"
   d="m 944.73,464.65 -0.01,1.75 c 0,0 7.1,-2.52 15.16,0.39 l 0.04,-1.68 c 0.01,0 -7.61,-2.78 -15.19,-0.46 z"
   id="path257" />
					<path
   class="st19"
   d="m 958.48,523.44 0.01,-1.75 c 0,0 -7.1,2.52 -15.17,-0.39 l -0.04,1.68 c 0,-0.01 7.62,2.78 15.2,0.46 z"
   id="path258" />
					<path
   class="st20"
   d="m 998.46,430.98 0.05,4.05 c 0,0 10.47,-6.23 22.59,0 v -3.88 c 0,0 -11.44,-5.98 -22.64,-0.17 z"
   id="path259" />
					<path
   class="st20"
   d="m 998.46,436.37 0.05,4.05 c 0,0 10.47,-6.23 22.59,0 v -3.88 c 0,0 -11.44,-5.98 -22.64,-0.17 z"
   id="path260" />
					<path
   class="st20"
   d="m 998.46,425.26 0.05,4.05 c 0,0 10.47,-6.23 22.59,0 v -3.88 c 0,0 -11.44,-5.98 -22.64,-0.17 z"
   id="path261" />
					<path
   class="st21"
   d="m 961.59,446.26 0.05,4.17 c 0,0 9.44,-6.23 20.85,0 l 0.07,-3.95 c -0.01,0 -10.43,-6.03 -20.97,-0.22 z"
   id="path262" />
					<path
   class="st21"
   d="m 961.52,440.57 0.05,4.13 c 0,0 9.57,-6.23 20.98,0 l 0.13,-3.88 c -0.01,0 -10.62,-6.06 -21.16,-0.25 z"
   id="path263" />
					<path
   class="st21"
   d="m 983.38,522.43 -0.05,-4.16 c 0,0 -9.44,6.23 -20.84,0 l -0.07,3.95 c 0,-0.01 10.42,6.02 20.96,0.21 z"
   id="path264" />
					<path
   class="st21"
   d="m 983.45,528.12 -0.05,-4.13 c 0,0 -9.57,6.23 -20.98,0 l -0.13,3.88 c 0.01,0 10.62,6.06 21.16,0.25 z"
   id="path265" />
					<rect
   x="968.84998"
   y="454.51001"
   class="st21"
   width="7.3000002"
   height="57.77"
   id="rect265" />
				</g>
				<g
   id="g298">
					<path
   class="st4"
   d="m 1257.4,447.77 c 0,0 -4.61,-4.95 -17.53,-2.23 l -4.6,87.15 c 0,0 13.06,3.33 17.68,-0.62 z"
   id="path266" />
					<path
   class="st5"
   d="m 1252.93,452.09 c 0,0 -2.37,-2.6 -9.14,-0.48 l -3,65.05 c 0,0 2.01,3.29 8.66,1.45 z"
   id="path267" />
					<path
   class="st6"
   d="m 1253.2,527.36 0.09,-2.45 c 0,0 -9.04,4.69 -17.56,-0.98 l -0.16,3.13 c 0,0 7.42,4.5 17.63,0.3 z"
   id="path268" />
					<path
   class="st7"
   d="m 1204.07,433.34 c 0,0 -0.93,29.68 -4.64,99.69 0,0 -11.36,3.28 -19.01,-1.37 0,0 4.17,-97.16 4.4,-100.18 0.24,-3.01 17.4,-2.08 19.25,1.86 z"
   id="path269" />
					<path
   class="st8"
   d="m 1197.38,458.47 c 0,0 -0.74,17.09 -3.08,57.4 0,0 -4.36,1.79 -7.21,-0.96 0,0 2.87,-55.94 2.99,-57.68 0.14,-1.73 6.65,-1.05 7.3,1.24 z"
   id="path270" />
					<path
   class="st9"
   d="m 1179.5,421.05 c 0,0 -9.51,-6.49 -22.49,0 v 110.61 c 0,0 11.13,6.05 23.42,0 z"
   id="path271" />
					<path
   class="st10"
   d="m 1174.78,445.48 c 0,0 -5.35,-4.59 -12.65,0 v 78.25 c 0,0 6.26,4.28 13.17,0 z"
   id="path272" />
					<path
   class="st11"
   d="m 1154.92,441.45 c 0,0 -6.49,-4.4 -12.98,0 0,0 0.93,85.78 0.93,91.35 0,0 6.72,3.01 14.14,0 z"
   id="path273" />
					<path
   class="st12"
   d="m 1152.35,460.21 c 0,0 -3.43,-2.9 -6.86,0 0,0 0.49,56.41 0.49,60.06 0,0 3.55,1.98 7.47,0 z"
   id="path274" />
					<path
   class="st13"
   d="m 1141.94,433.11 c 0,0 -9.51,-6.96 -22.03,-1.16 l 1.16,99.71 c 0,0 9.51,5.81 20.87,0 0,0 -2.32,-91.6 0,-98.55 z"
   id="path275" />
					<path
   class="st7"
   d="m 1103.35,460.05 -1.83,71.64 c 0,0 7.62,3.17 15.19,0.39 l 1.81,-70.85 c 0,0 -5.42,-4.29 -15.17,-1.18 z"
   id="path276" />
					<path
   class="st15"
   d="m 1233.05,429.7 c 0,0 -5.33,-3.87 -19.48,0 l 0.93,101.96 c 0,0 4.64,4.98 18.55,1.55 z"
   id="path277" />
					<path
   class="st16"
   d="m 1227.89,451.79 c 0,0 -2.51,-2.47 -9.16,0 l 0.44,65.12 c 0,0 2.18,3.18 8.72,0.99 z"
   id="path278" />
					<path
   class="st6"
   d="m 1213.74,447.48 c 0,0 -3.64,-3.25 -9.67,0 v 85.73 c 0,0 4.64,3.19 10.66,0 z"
   id="path279" />
					<path
   class="st6"
   d="m 1213.66,438.38 0.04,4.26 c 0,0 14.65,-4.09 19.36,1.39 v -4.96 c -0.01,0 -7.77,-4.61 -19.4,-0.69 z"
   id="path280" />
					<path
   class="st17"
   d="m 1184.52,437.85 -0.21,5.28 c 0,0 8.57,-5.39 19.36,1.13 l 0.2,-5.19 c 0,0 -9.4,-5.63 -19.35,-1.22 z"
   id="path281" />
					<path
   class="st17"
   d="m 1199.78,527.54 0.21,-5.28 c 0,0 -8.31,5.39 -19.11,-1.13 l -0.23,5.32 c 0,0 9.18,5.5 19.13,1.09 z"
   id="path282" />
					<path
   class="st17"
   d="m 1184.24,444.15 -0.19,3.3 c 0,0 10.33,-6.33 19.45,0.99 l 0.08,-3.25 c 0,-0.01 -9.49,-6.17 -19.34,-1.04 z"
   id="path283" />
					<path
   class="st6"
   d="m 1213.66,443.97 0.04,2.45 c 0,0 10.24,-5.25 19.36,1.27 v -2.74 c -0.01,0 -8.43,-5.7 -19.4,-0.98 z"
   id="path284" />
					<path
   class="st18"
   d="m 1214.63,529.11 v -4.38 c 0,0 -5.04,3.33 -10.56,-0.28 v 4.52 c 0,0 5.54,3.39 10.56,0.14 z"
   id="path285" />
					<path
   class="st18"
   d="m 1214.63,523.88 -0.02,-2.06 c 0,0 -4.88,3.17 -10.53,0 v 1.97 c -0.01,0.01 5.33,3.05 10.55,0.09 z"
   id="path286" />
					<path
   class="st18"
   d="m 1204.07,455.8 0.02,2.06 c 0,0 4.54,-3.17 9.79,0 v -1.97 c 0,0 -4.96,-3.04 -9.81,-0.09 z"
   id="path287" />
					<path
   class="st18"
   d="m 1204.07,458.54 0.02,2.06 c 0,0 4.54,-3.17 9.79,0 v -1.97 c 0,0 -4.96,-3.04 -9.81,-0.09 z"
   id="path288" />
					<path
   class="st18"
   d="m 1204.07,452.89 0.02,2.06 c 0,0 4.54,-3.17 9.79,0 v -1.97 c 0,0 -4.96,-3.04 -9.81,-0.09 z"
   id="path289" />
					<path
   class="st19"
   d="m 1103.22,464.65 -0.01,1.75 c 0,0 7.1,-2.52 15.16,0.39 l 0.04,-1.68 c 0.01,0 -7.6,-2.78 -15.19,-0.46 z"
   id="path290" />
					<path
   class="st19"
   d="m 1116.97,523.44 0.01,-1.75 c 0,0 -7.1,2.52 -15.17,-0.39 l -0.04,1.68 c 0,-0.01 7.62,2.78 15.2,0.46 z"
   id="path291" />
					<path
   class="st20"
   d="m 1156.95,430.98 0.05,4.05 c 0,0 10.47,-6.23 22.59,0 v -3.88 c 0,0 -11.44,-5.98 -22.64,-0.17 z"
   id="path292" />
					<path
   class="st20"
   d="m 1156.95,436.37 0.05,4.05 c 0,0 10.47,-6.23 22.59,0 v -3.88 c 0,0 -11.44,-5.98 -22.64,-0.17 z"
   id="path293" />
					<path
   class="st20"
   d="m 1156.95,425.26 0.05,4.05 c 0,0 10.47,-6.23 22.59,0 v -3.88 c 0,0 -11.44,-5.98 -22.64,-0.17 z"
   id="path294" />
					<path
   class="st21"
   d="m 1120.08,446.26 0.05,4.17 c 0,0 9.44,-6.23 20.85,0 l 0.07,-3.95 c -0.01,0 -10.43,-6.03 -20.97,-0.22 z"
   id="path295" />
					<path
   class="st21"
   d="m 1120.01,440.57 0.05,4.13 c 0,0 9.57,-6.23 20.98,0 l 0.13,-3.88 c 0,0 -10.62,-6.06 -21.16,-0.25 z"
   id="path296" />
					<path
   class="st21"
   d="m 1141.87,522.43 -0.05,-4.16 c 0,0 -9.44,6.23 -20.84,0 l -0.07,3.95 c 0,-0.01 10.42,6.02 20.96,0.21 z"
   id="path297" />
					<path
   class="st21"
   d="m 1141.94,528.12 -0.05,-4.13 c 0,0 -9.57,6.23 -20.98,0 l -0.13,3.88 c 0.01,0 10.62,6.06 21.16,0.25 z"
   id="path298" />
					<rect
   x="1127.35"
   y="454.51001"
   class="st21"
   width="7.3000002"
   height="57.77"
   id="rect298" />
				</g>
				<g
   id="g331">
					<path
   class="st4"
   d="m 1416.72,447.77 c 0,0 -4.61,-4.95 -17.53,-2.23 l -4.6,87.15 c 0,0 13.06,3.33 17.68,-0.62 z"
   id="path299" />
					<path
   class="st5"
   d="m 1412.26,452.09 c 0,0 -2.37,-2.6 -9.14,-0.48 l -3,65.05 c 0,0 2.01,3.29 8.66,1.45 z"
   id="path300" />
					<path
   class="st6"
   d="m 1412.52,527.36 0.09,-2.45 c 0,0 -9.03,4.69 -17.56,-0.98 l -0.16,3.13 c 0,0 7.43,4.5 17.63,0.3 z"
   id="path301" />
					<path
   class="st7"
   d="m 1363.4,433.34 c 0,0 -0.93,29.68 -4.64,99.69 0,0 -11.36,3.28 -19.01,-1.37 0,0 4.17,-97.16 4.41,-100.18 0.23,-3.01 17.38,-2.08 19.24,1.86 z"
   id="path302" />
					<path
   class="st8"
   d="m 1356.71,458.47 c 0,0 -0.74,17.09 -3.08,57.4 0,0 -4.36,1.79 -7.21,-0.96 0,0 2.87,-55.94 2.99,-57.68 0.13,-1.73 6.64,-1.05 7.3,1.24 z"
   id="path303" />
					<path
   class="st9"
   d="m 1338.82,421.05 c 0,0 -9.51,-6.49 -22.49,0 v 110.61 c 0,0 11.13,6.05 23.42,0 z"
   id="path304" />
					<path
   class="st10"
   d="m 1334.1,445.48 c 0,0 -5.35,-4.59 -12.65,0 v 78.25 c 0,0 6.26,4.28 13.17,0 z"
   id="path305" />
					<path
   class="st11"
   d="m 1314.25,441.45 c 0,0 -6.49,-4.4 -12.98,0 0,0 0.93,85.78 0.93,91.35 0,0 6.72,3.01 14.14,0 z"
   id="path306" />
					<path
   class="st12"
   d="m 1311.68,460.21 c 0,0 -3.43,-2.9 -6.86,0 0,0 0.49,56.41 0.49,60.06 0,0 3.55,1.98 7.47,0 z"
   id="path307" />
					<path
   class="st13"
   d="m 1301.26,433.11 c 0,0 -9.51,-6.96 -22.03,-1.16 l 1.16,99.71 c 0,0 9.51,5.81 20.87,0 0,0 -2.32,-91.6 0,-98.55 z"
   id="path308" />
					<path
   class="st7"
   d="m 1262.67,460.05 -1.83,71.64 c 0,0 7.62,3.17 15.19,0.39 l 1.81,-70.85 c 0,0 -5.42,-4.29 -15.17,-1.18 z"
   id="path309" />
					<path
   class="st15"
   d="m 1392.38,429.7 c 0,0 -5.33,-3.87 -19.48,0 l 0.93,101.96 c 0,0 4.64,4.98 18.55,1.55 z"
   id="path310" />
					<path
   class="st16"
   d="m 1387.22,451.79 c 0,0 -2.51,-2.47 -9.16,0 l 0.44,65.12 c 0,0 2.18,3.18 8.72,0.99 z"
   id="path311" />
					<path
   class="st6"
   d="m 1373.06,447.48 c 0,0 -3.64,-3.25 -9.67,0 v 85.73 c 0,0 4.64,3.19 10.66,0 z"
   id="path312" />
					<path
   class="st6"
   d="m 1372.98,438.38 0.04,4.26 c 0,0 14.65,-4.09 19.36,1.39 v -4.96 c 0,0 -7.77,-4.61 -19.4,-0.69 z"
   id="path313" />
					<path
   class="st17"
   d="m 1343.84,437.85 -0.21,5.28 c 0,0 8.57,-5.39 19.36,1.13 l 0.2,-5.19 c 0,0 -9.4,-5.63 -19.35,-1.22 z"
   id="path314" />
					<path
   class="st17"
   d="m 1359.1,527.54 0.21,-5.28 c 0,0 -8.31,5.39 -19.11,-1.13 l -0.23,5.32 c 0,0 9.18,5.5 19.13,1.09 z"
   id="path315" />
					<path
   class="st17"
   d="m 1343.56,444.15 -0.19,3.3 c 0,0 10.33,-6.33 19.45,0.99 l 0.08,-3.25 c 0,-0.01 -9.49,-6.17 -19.34,-1.04 z"
   id="path316" />
					<path
   class="st6"
   d="m 1372.98,443.97 0.04,2.45 c 0,0 10.24,-5.25 19.36,1.27 v -2.74 c 0,0 -8.42,-5.7 -19.4,-0.98 z"
   id="path317" />
					<path
   class="st18"
   d="m 1373.95,529.11 v -4.38 c 0,0 -5.04,3.33 -10.56,-0.28 v 4.52 c 0.01,0 5.55,3.39 10.56,0.14 z"
   id="path318" />
					<path
   class="st18"
   d="m 1373.95,523.88 -0.02,-2.06 c 0,0 -4.88,3.17 -10.53,0 v 1.97 c 0,0.01 5.33,3.05 10.55,0.09 z"
   id="path319" />
					<path
   class="st18"
   d="m 1363.39,455.8 0.02,2.06 c 0,0 4.54,-3.17 9.79,0 v -1.97 c 0,0 -4.96,-3.04 -9.81,-0.09 z"
   id="path320" />
					<path
   class="st18"
   d="m 1363.39,458.54 0.02,2.06 c 0,0 4.54,-3.17 9.79,0 v -1.97 c 0,0 -4.96,-3.04 -9.81,-0.09 z"
   id="path321" />
					<path
   class="st18"
   d="m 1363.39,452.89 0.02,2.06 c 0,0 4.54,-3.17 9.79,0 v -1.97 c 0,0 -4.96,-3.04 -9.81,-0.09 z"
   id="path322" />
					<path
   class="st19"
   d="m 1262.54,464.65 -0.01,1.75 c 0,0 7.1,-2.52 15.16,0.39 l 0.04,-1.68 c 0.01,0 -7.6,-2.78 -15.19,-0.46 z"
   id="path323" />
					<path
   class="st19"
   d="m 1276.29,523.44 0.01,-1.75 c 0,0 -7.1,2.52 -15.17,-0.39 l -0.04,1.68 c 0.01,-0.01 7.62,2.78 15.2,0.46 z"
   id="path324" />
					<path
   class="st20"
   d="m 1316.27,430.98 0.05,4.05 c 0,0 10.47,-6.23 22.59,0 v -3.88 c 0.01,0 -11.44,-5.98 -22.64,-0.17 z"
   id="path325" />
					<path
   class="st20"
   d="m 1316.27,436.37 0.05,4.05 c 0,0 10.47,-6.23 22.59,0 v -3.88 c 0.01,0 -11.44,-5.98 -22.64,-0.17 z"
   id="path326" />
					<path
   class="st20"
   d="m 1316.27,425.26 0.05,4.05 c 0,0 10.47,-6.23 22.59,0 v -3.88 c 0.01,0 -11.44,-5.98 -22.64,-0.17 z"
   id="path327" />
					<path
   class="st21"
   d="m 1279.4,446.26 0.05,4.17 c 0,0 9.44,-6.23 20.85,0 l 0.07,-3.95 c -0.01,0 -10.43,-6.03 -20.97,-0.22 z"
   id="path328" />
					<path
   class="st21"
   d="m 1279.34,440.57 0.05,4.13 c 0,0 9.57,-6.23 20.98,0 l 0.13,-3.88 c -0.01,0 -10.62,-6.06 -21.16,-0.25 z"
   id="path329" />
					<path
   class="st21"
   d="m 1301.2,522.43 -0.05,-4.16 c 0,0 -9.44,6.23 -20.84,0 l -0.07,3.95 c 0,-0.01 10.42,6.02 20.96,0.21 z"
   id="path330" />
					<path
   class="st21"
   d="m 1301.26,528.12 -0.05,-4.13 c 0,0 -9.57,6.23 -20.98,0 l -0.13,3.88 c 0.01,0 10.62,6.06 21.16,0.25 z"
   id="path331" />
					<rect
   x="1286.67"
   y="454.51001"
   class="st21"
   width="7.3000002"
   height="57.77"
   id="rect331" />
				</g>
				<g
   id="g369">
					<path
   class="st4"
   d="m 1575.21,447.77 c 0,0 -4.61,-4.95 -17.53,-2.23 l -4.6,87.15 c 0,0 13.06,3.33 17.68,-0.62 z"
   id="path332" />
					<path
   class="st5"
   d="m 1570.75,452.09 c 0,0 -2.37,-2.6 -9.14,-0.48 l -3,65.05 c 0,0 2.01,3.29 8.66,1.45 z"
   id="path333" />
					<path
   class="st6"
   d="m 1571.02,527.36 0.09,-2.45 c 0,0 -9.03,4.69 -17.56,-0.98 l -0.16,3.13 c 0,0 7.42,4.5 17.63,0.3 z"
   id="path334" />
					<path
   class="st7"
   d="m 1521.89,433.34 c 0,0 -0.93,29.68 -4.64,99.69 0,0 -11.36,3.28 -19.01,-1.37 0,0 4.17,-97.16 4.4,-100.18 0.24,-3.01 17.39,-2.08 19.25,1.86 z"
   id="path335" />
					<path
   class="st8"
   d="m 1515.2,458.47 c 0,0 -0.74,17.09 -3.08,57.4 0,0 -4.36,1.79 -7.21,-0.96 0,0 2.87,-55.94 2.99,-57.68 0.14,-1.73 6.65,-1.05 7.3,1.24 z"
   id="path336" />
					<path
   class="st9"
   d="m 1497.31,421.05 c 0,0 -9.51,-6.49 -22.49,0 v 110.61 c 0,0 11.13,6.05 23.42,0 z"
   id="path337" />
					<path
   class="st10"
   d="m 1492.6,445.48 c 0,0 -5.35,-4.59 -12.65,0 v 78.25 c 0,0 6.26,4.28 13.17,0 z"
   id="path338" />
					<path
   class="st11"
   d="m 1472.74,441.45 c 0,0 -6.49,-4.4 -12.98,0 0,0 0.93,85.78 0.93,91.35 0,0 6.72,3.01 14.14,0 z"
   id="path339" />
					<path
   class="st12"
   d="m 1470.17,460.21 c 0,0 -3.43,-2.9 -6.86,0 0,0 0.49,56.41 0.49,60.06 0,0 3.55,1.98 7.47,0 z"
   id="path340" />
					<path
   class="st13"
   d="m 1459.75,433.11 c 0,0 -9.51,-6.96 -22.03,-1.16 l 1.16,99.71 c 0,0 9.51,5.81 20.87,0 0,0 -2.31,-91.6 0,-98.55 z"
   id="path341" />
					<path
   class="st7"
   d="m 1421.16,460.05 -1.83,71.64 c 0,0 7.62,3.17 15.19,0.39 l 1.81,-70.85 c 0,0 -5.42,-4.29 -15.17,-1.18 z"
   id="path342" />
					<path
   class="st15"
   d="m 1550.87,429.7 c 0,0 -5.33,-3.87 -19.48,0 l 0.93,101.96 c 0,0 4.64,4.98 18.55,1.55 z"
   id="path343" />
					<path
   class="st16"
   d="m 1545.71,451.79 c 0,0 -2.51,-2.47 -9.16,0 l 0.44,65.12 c 0,0 2.18,3.18 8.72,0.99 z"
   id="path344" />
					<path
   class="st6"
   d="m 1531.56,447.48 c 0,0 -3.64,-3.25 -9.67,0 v 85.73 c 0,0 4.64,3.19 10.66,0 z"
   id="path345" />
					<path
   class="st6"
   d="m 1531.47,438.38 0.04,4.26 c 0,0 14.65,-4.09 19.36,1.39 v -4.96 c 0,0 -7.77,-4.61 -19.4,-0.69 z"
   id="path346" />
					<path
   class="st17"
   d="m 1502.33,437.85 -0.21,5.28 c 0,0 8.57,-5.39 19.36,1.13 l 0.2,-5.19 c 0.01,0 -9.4,-5.63 -19.35,-1.22 z"
   id="path347" />
					<path
   class="st17"
   d="m 1517.59,527.54 0.21,-5.28 c 0,0 -8.31,5.39 -19.11,-1.13 l -0.23,5.32 c 0,0 9.19,5.5 19.13,1.09 z"
   id="path348" />
					<path
   class="st17"
   d="m 1502.05,444.15 -0.19,3.3 c 0,0 10.33,-6.33 19.45,0.99 l 0.08,-3.25 c 0.01,-0.01 -9.48,-6.17 -19.34,-1.04 z"
   id="path349" />
					<path
   class="st6"
   d="m 1531.47,443.97 0.04,2.45 c 0,0 10.24,-5.25 19.36,1.27 v -2.74 c 0,0 -8.42,-5.7 -19.4,-0.98 z"
   id="path350" />
					<path
   class="st18"
   d="m 1532.44,529.11 v -4.38 c 0,0 -5.04,3.33 -10.56,-0.28 v 4.52 c 0.01,0 5.55,3.39 10.56,0.14 z"
   id="path351" />
					<path
   class="st18"
   d="m 1532.44,523.88 -0.02,-2.06 c 0,0 -4.88,3.17 -10.53,0 v 1.97 c 0,0.01 5.33,3.05 10.55,0.09 z"
   id="path352" />
					<path
   class="st18"
   d="m 1521.88,455.8 0.02,2.06 c 0,0 4.54,-3.17 9.79,0 v -1.97 c 0,0 -4.96,-3.04 -9.81,-0.09 z"
   id="path353" />
					<path
   class="st18"
   d="m 1521.88,458.54 0.02,2.06 c 0,0 4.54,-3.17 9.79,0 v -1.97 c 0,0 -4.96,-3.04 -9.81,-0.09 z"
   id="path354" />
					<path
   class="st18"
   d="m 1521.88,452.89 0.02,2.06 c 0,0 4.54,-3.17 9.79,0 v -1.97 c 0,0 -4.96,-3.04 -9.81,-0.09 z"
   id="path355" />
					<path
   class="st19"
   d="m 1421.04,464.65 -0.01,1.75 c 0,0 7.1,-2.52 15.16,0.39 l 0.04,-1.68 c 0,0 -7.61,-2.78 -15.19,-0.46 z"
   id="path356" />
					<path
   class="st19"
   d="m 1434.79,523.44 0.01,-1.75 c 0,0 -7.1,2.52 -15.17,-0.39 l -0.04,1.68 c 0,-0.01 7.61,2.78 15.2,0.46 z"
   id="path357" />
					<path
   class="st20"
   d="m 1474.76,430.98 0.05,4.05 c 0,0 10.47,-6.23 22.59,0 v -3.88 c 0.01,0 -11.43,-5.98 -22.64,-0.17 z"
   id="path358" />
					<path
   class="st20"
   d="m 1474.76,436.37 0.05,4.05 c 0,0 10.47,-6.23 22.59,0 v -3.88 c 0.01,0 -11.43,-5.98 -22.64,-0.17 z"
   id="path359" />
					<path
   class="st20"
   d="m 1474.76,425.26 0.05,4.05 c 0,0 10.47,-6.23 22.59,0 v -3.88 c 0.01,0 -11.43,-5.98 -22.64,-0.17 z"
   id="path360" />
					<path
   class="st9"
   d="m 1600.51,421.05 c 0,0 -9.51,-6.49 -22.49,0 v 110.61 c 0,0 11.13,6.05 23.42,0 z"
   id="path361" />
					<path
   class="st10"
   d="m 1595.8,445.48 c 0,0 -5.35,-4.59 -12.65,0 v 78.25 c 0,0 6.26,4.28 13.17,0 z"
   id="path362" />
					<path
   class="st20"
   d="m 1577.96,430.98 0.05,4.05 c 0,0 10.47,-6.23 22.59,0 v -3.88 c 0.01,0 -11.43,-5.98 -22.64,-0.17 z"
   id="path363" />
					<path
   class="st20"
   d="m 1577.96,436.37 0.05,4.05 c 0,0 10.47,-6.23 22.59,0 v -3.88 c 0.01,0 -11.43,-5.98 -22.64,-0.17 z"
   id="path364" />
					<path
   class="st20"
   d="m 1577.96,425.26 0.05,4.05 c 0,0 10.47,-6.23 22.59,0 v -3.88 c 0.01,0 -11.43,-5.98 -22.64,-0.17 z"
   id="path365" />
					<path
   class="st21"
   d="m 1437.9,446.26 0.05,4.17 c 0,0 9.44,-6.23 20.85,0 l 0.07,-3.95 c -0.02,0 -10.44,-6.03 -20.97,-0.22 z"
   id="path366" />
					<path
   class="st21"
   d="m 1437.83,440.57 0.05,4.13 c 0,0 9.57,-6.23 20.98,0 l 0.13,-3.88 c -0.01,0 -10.62,-6.06 -21.16,-0.25 z"
   id="path367" />
					<path
   class="st21"
   d="m 1459.69,522.43 -0.05,-4.16 c 0,0 -9.44,6.23 -20.84,0 l -0.07,3.95 c 0,-0.01 10.42,6.02 20.96,0.21 z"
   id="path368" />
					<path
   class="st21"
   d="m 1459.75,528.12 -0.05,-4.13 c 0,0 -9.57,6.23 -20.98,0 l -0.13,3.88 c 0.01,0 10.62,6.06 21.16,0.25 z"
   id="path369" />
					<rect
   x="1445.16"
   y="454.51001"
   class="st21"
   width="7.3000002"
   height="57.77"
   id="rect369" />
				</g>
			</g>
		</g>
		
		
		
		
		
		
	<g
   style="clip-rule:evenodd;fill-rule:evenodd;stroke-width:4.23985;image-rendering:optimizeQuality;shape-rendering:geometricPrecision;text-rendering:geometricPrecision"
   id="g2"
   transform="matrix(0.2358577,0,0,0.2358577,1078.202,301.10844)"><path
     fill="#ffffff"
     fill-rule="nonzero"
     d="m 256.001,19.596 c 65.278,0 124.383,26.466 167.163,69.243 42.776,42.779 69.243,101.884 69.243,167.162 0,65.278 -26.467,124.383 -69.246,167.16 -42.777,42.779 -101.882,69.246 -167.16,69.246 -65.278,0 -124.383,-26.467 -167.162,-69.243 C 46.062,380.384 19.596,321.279 19.596,256.001 19.596,190.723 46.062,131.618 88.839,88.839 131.618,46.062 190.723,19.596 256.001,19.596 Z"
     id="path2"
     style="stroke-width:4.23985" /><path
     fill="#006633"
     fill-rule="nonzero"
     d="M 255.939,39.594 V 472.409 C 136.448,472.376 39.594,375.498 39.594,256.001 c 0,-119.5 96.854,-216.375 216.345,-216.407 z"
     id="path3"
     style="stroke-width:4.23985" /><path
     fill="#d21034"
     fill-rule="nonzero"
     d="m 351.787,196.335 c -19.747,-34.233 -56.313,-55.338 -95.848,-55.338 -61.115,0 -110.676,49.561 -110.676,110.676 0,61.113 49.561,110.677 110.676,110.677 39.535,0 76.086,-21.094 95.854,-55.333 a 88.607,88.607 0 0 1 -69.122,33.197 c -48.893,0 -88.541,-39.65 -88.541,-88.541 0,-48.893 39.648,-88.541 88.541,-88.541 a 88.558,88.558 0 0 1 69.116,33.206 z m 4.259,55.338 -100.107,-32.526 61.871,85.154 V 199.042 L 255.939,284.2 Z"
     id="path4"
     style="stroke-width:4.23985" /></g></g>
</g>
</svg>
